ply
format ascii 1.0
comment Created by Open Asset Import Library - http://assimp.sf.net (v5.2.3481089591)
element vertex 78
property float x
property float y
property float z
property float nx
property float ny
property float nz
element face 122
property list uchar int vertex_index
end_header
0.000380999991 0 0.0228100009 -0.561100006 -0.680800021 0.470800012
9.40000027e-05 0 0.0223730002 -0 -1 -0
0.000760999974 0 0.0231679995 -0 -1 -0
-8.39999993e-05 0 0.0218819994 -0 -1 -0
-0.000144999998 0 0.0213639997 -0.719299972 -0.694000006 0.0313999988
0.00121400005 0 0.0234299991 -0 -1 -0
0.00223600003 0 0.0236099996 -0 -1 -0
0.00171400001 0 0.0235789996 -0.127200007 -0.680800021 0.721300006
0.00322999991 0 0.0233120006 0.332399994 -0.694000006 0.638700008
0.00274999999 0 0.023519 -0 -1 -0
-0.000144999998 0 -0.00827199966 -0.718500018 -0.694299996 -0.0417999998
0.000380999991 0 -0.00971799996 -0.560299993 -0.681900024 -0.470200002
0.000760999974 0 -0.0100769997 -0.436800003 -0.681900024 -0.586700022
9.40000027e-05 0 -0.00928200036 -0.653699994 -0.681900024 -0.328299999
0.00121400005 0 -0.010338 -0.289700001 -0.681900024 -0.671700001
0.00171400001 0 -0.0104879998 -0.127000004 -0.681900024 -0.720300019
0.00223600003 0 -0.0105180005 0.0425000004 -0.681900024 -0.730199993
-8.39999993e-05 0 -0.00879099965 -0.711799979 -0.681900024 -0.168699995
0.00274999999 0 -0.010427 0.209800005 -0.681900024 -0.700699985
0.00322999991 0 -0.0102199996 0.323000014 -0.694199979 -0.64319998
0.028895 0 0.00849399995 0.395500004 -0.694199979 0.601300001
0.0296500009 0 0.00778200012 0.611100018 -0.681900024 0.40200001
0.0293140002 0 0.00818200037 0.501999974 -0.681900024 0.532000005
0.0298839994 0 0.00731500005 0.687300026 -0.681900024 0.250200003
0.0300050005 0 0.00628500013 0.726499975 -0.681900024 -0.0848999992
0.0300050005 0 0.00680699991 0.726499975 -0.681900024 0.0848999992
0.028895 0 0.00459699985 0.395500004 -0.694199979 -0.601300001
0.0296500009 0 0.00530900015 0.611100018 -0.681900024 -0.40200001
0.0298839994 0 0.00577600021 0.687300026 -0.681900024 -0.250200003
0.0293140002 0 0.00490899989 0.501999974 -0.681900024 -0.532000005
-0.000144999998 0.0240199994 -0.00827199966 -0.718500018 0.694299996 -0.0417999998
-0.000144999998 0.0240199994 0.0213639997 -0.719299972 0.694000006 0.0313999988
-0.000111000001 0.0240199994 0.0217540003 -0.984799981 -0 0.173700005
-0.000111000001 0 0.0217540003 -0.984799981 -0 0.173700005
-9.00000032e-06 0.0240199994 0.0221330002 -0.939700007 -0 0.341899991
-9.00000032e-06 0 0.0221330002 -0.939700007 -0 0.341899991
0.000155999995 0 0.0224890001 -0.866100013 -0 0.499900013
0.000155999995 0.0240199994 0.0224890001 -0.866100013 -0 0.499900013
0.000380999991 0.0240199994 0.0228100009 -0.561100006 0.680800021 0.470800012
0.000659000012 0.0240199994 0.0230870005 -0.642799973 -0 0.765999973
0.000659000012 0 0.0230870005 -0.642799973 -0 0.765999973
0.000980000012 0 0.0233120006 -0.5 -0 0.865999997
0.000980000012 0.0240199994 0.0233120006 -0.5 -0 0.865999997
0.00133500004 0.0240199994 0.0234779995 -0.342000008 -0 0.939700007
0.00133500004 0 0.0234779995 -0.342000008 -0 0.939700007
0.00171400001 0.0240199994 0.0235789996 -0.127200007 0.680800021 0.721300006
0.00210499996 0.0240199994 0.0236140005 -0 -0 1
0.00210499996 0 0.0236140005 -0 -0 1
0.00249599991 0.0240199994 0.0235789996 0.173700005 -0 0.984799981
0.00249599991 0 0.0235789996 0.173700005 -0 0.984799981
0.002874 0 0.0234779995 0.342000008 -0 0.939700007
0.002874 0.0240199994 0.0234779995 0.342000008 -0 0.939700007
0.00322999991 0.0240199994 0.0233120006 0.332399994 0.693899989 0.638700008
0.00322999991 0.0240199994 -0.0102199996 0.323000014 0.694199979 -0.64319998
0.00274999999 0.0240199994 -0.010427 0.209800005 0.681900024 -0.700699985
0.00223600003 0.0240199994 -0.0105180005 0.0425000004 0.681900024 -0.730199993
0.00171400001 0.0240199994 -0.0104879998 -0.127000004 0.681900024 -0.720300019
0.00121400005 0.0240199994 -0.010338 -0.289700001 0.681900024 -0.671700001
0.000760999974 0.0240199994 -0.0100769997 -0.436800003 0.681900024 -0.586700022
0.000380999991 0.0240199994 -0.00971799996 -0.560299993 0.681900024 -0.470200002
9.40000027e-05 0.0240199994 -0.00928200036 -0.653699994 0.681900024 -0.328299999
-8.39999993e-05 0.0240199994 -0.00879099965 -0.711799979 0.681900024 -0.168699995
0.028895 0.0240199994 0.00849399995 0.395500004 0.694199979 0.601300001
0.028895 0.0240199994 0.00459699985 0.395500004 0.694199979 -0.601300001
0.0293140002 0.0240199994 0.00490899989 0.501999974 0.681900024 -0.532000005
0.0296500009 0.0240199994 0.00530900015 0.611100018 0.681900024 -0.40200001
0.0298839994 0.0240199994 0.00577600021 0.687300026 0.681900024 -0.250200003
0.0300050005 0.0240199994 0.00628500013 0.726499975 0.681900024 -0.0848999992
0.0300050005 0.0240199994 0.00680699991 0.726499975 0.681900024 0.0848999992
0.0298839994 0.0240199994 0.00731500005 0.687300026 0.681900024 0.250200003
0.0296500009 0.0240199994 0.00778200012 0.611100018 0.681900024 0.40200001
0.0293140002 0.0240199994 0.00818200037 0.501999974 0.681900024 0.532000005
9.40000027e-05 0.0240199994 0.0223730002 -0 1 -0
0.000760999974 0.0240199994 0.0231679995 -0 1 -0
-8.39999993e-05 0.0240199994 0.0218819994 -0 1 -0
0.00223600003 0.0240199994 0.0236099996 -0 1 -0
0.00121400005 0.0240199994 0.0234299991 -0 1 -0
0.00274999999 0.0240199994 0.023519 -0 1 -0
3 0 1 2
3 3 4 1
3 5 6 7
3 2 8 5
3 6 8 9
3 1 8 2
3 5 8 6
3 4 8 1
3 4 10 8
3 11 12 13
3 12 14 13
3 14 15 13
3 13 16 17
3 17 16 10
3 15 16 13
3 16 18 10
3 10 19 8
3 18 19 10
3 20 21 22
3 23 24 25
3 21 24 23
3 8 26 20
3 19 26 8
3 24 27 28
3 20 27 21
3 21 27 24
3 26 27 20
3 26 29 27
3 10 4 30
3 30 4 31
3 32 4 33
3 32 31 4
3 34 33 35
3 34 35 36
3 34 32 33
3 37 34 36
3 38 36 0
3 38 37 36
3 39 0 40
3 39 40 41
3 39 38 0
3 42 39 41
3 43 41 44
3 43 42 41
3 45 44 7
3 45 43 44
3 46 7 47
3 46 45 7
3 48 47 49
3 48 49 50
3 48 46 47
3 51 48 50
3 52 50 8
3 52 51 50
3 53 19 18
3 54 18 16
3 54 53 18
3 55 54 16
3 56 16 15
3 56 15 14
3 56 55 16
3 57 56 14
3 58 14 12
3 58 57 14
3 59 12 11
3 59 58 12
3 60 11 13
3 60 59 11
3 61 13 17
3 61 60 13
3 30 17 10
3 30 61 17
3 8 20 52
3 52 20 62
3 26 19 63
3 63 19 53
3 26 63 29
3 29 64 27
3 63 64 29
3 64 65 27
3 27 66 28
3 28 66 24
3 65 66 27
3 66 67 24
3 24 68 25
3 67 68 24
3 25 69 23
3 68 69 25
3 23 70 21
3 69 70 23
3 21 71 22
3 22 71 20
3 70 71 21
3 71 62 20
3 72 38 73
3 31 74 72
3 75 76 45
3 52 73 76
3 52 75 77
3 52 72 73
3 52 76 75
3 52 31 72
3 30 31 52
3 58 59 60
3 57 58 60
3 56 57 60
3 55 60 61
3 55 61 30
3 55 56 60
3 54 55 30
3 53 30 52
3 53 54 30
3 70 62 71
3 67 69 68
3 67 70 69
3 63 52 62
3 63 53 52
3 65 67 66
3 65 62 70
3 65 70 67
3 65 63 62
3 64 63 65
